<?xml version="1.0" standalone="no"?>
<!DOCTYPE svg PUBLIC "-//W3C//DTD SVG 20010904//EN"
 "http://www.w3.org/TR/2001/REC-SVG-20010904/DTD/svg10.dtd">
<svg version="1.0" xmlns="http://www.w3.org/2000/svg"
 width="141.000000pt" height="52.000000pt" viewBox="0 0 141.000000 52.000000"
 preserveAspectRatio="xMidYMid meet">

<g transform="translate(0.000000,52.000000) scale(0.100000,-0.100000)"
fill="#000000" stroke="none">
<path d="M48 388 c5 -136 -2 -128 101 -128 72 0 90 3 95 16 3 9 6 56 6 105 0
88 0 89 -25 89 -25 0 -25 -1 -25 -90 l0 -90 -50 0 -50 0 0 90 0 90 -28 0 -27
0 3 -82z"/>
<path d="M318 365 l3 -105 95 0 c94 0 95 0 105 27 7 19 7 35 -1 52 -8 18 -8
32 1 53 9 23 8 32 -5 53 -16 24 -21 25 -109 25 l-92 0 3 -105z m152 45 c0 -29
-2 -30 -45 -30 -43 0 -45 1 -45 30 0 29 2 30 45 30 43 0 45 -1 45 -30z m0 -90
c0 -29 -2 -30 -45 -30 -43 0 -45 1 -45 30 0 29 2 30 45 30 43 0 45 -1 45 -30z"/>
<path d="M611 456 c-8 -9 -11 -46 -9 -103 l3 -88 83 -3 c53 -2 89 1 98 9 21
17 19 162 -2 183 -21 21 -156 23 -173 2z m129 -91 l0 -75 -45 0 -45 0 0 75 0
75 45 0 45 0 0 -75z"/>
<path d="M864 454 c3 -9 6 -56 6 -105 0 -88 0 -89 25 -89 23 0 25 4 25 40 0
35 3 40 23 40 14 0 32 -14 50 -40 22 -32 35 -40 59 -40 l30 0 -27 36 -27 36
21 14 c16 11 21 26 21 58 0 23 -5 47 -12 54 -8 8 -46 12 -106 12 -82 0 -93 -2
-88 -16z m151 -49 c0 -29 -2 -30 -47 -33 l-48 -3 0 36 0 36 48 -3 c45 -3 47
-4 47 -33z"/>
<path d="M1196 456 c3 -9 -8 -50 -26 -92 -17 -41 -34 -82 -37 -90 -8 -22 35
-17 47 6 16 29 104 29 120 0 7 -13 21 -20 39 -20 l29 0 -43 103 -43 102 -46 3
c-38 3 -45 0 -40 -12z m62 -63 c5 -16 13 -36 17 -45 6 -15 1 -18 -33 -18 l-41
0 17 45 c9 25 19 45 23 45 4 0 12 -12 17 -27z"/>
<path d="M384 175 c-17 -13 -17 -14 -1 -15 21 0 22 -8 2 -30 -14 -16 -13 -17
25 -17 38 0 39 1 25 17 -20 22 -19 30 3 30 15 1 15 2 -2 15 -11 8 -23 15 -26
15 -3 0 -15 -7 -26 -15z"/>
<path d="M470 175 c0 -9 -7 -18 -15 -21 -14 -6 -14 -8 -1 -18 8 -6 16 -20 19
-31 3 -11 5 4 6 33 0 28 -1 52 -4 52 -3 0 -5 -7 -5 -15z"/>
<path d="M590 140 c0 -27 5 -50 10 -50 6 0 10 11 10 24 0 13 6 27 13 29 10 4
10 6 0 6 -7 1 -13 10 -13 21 0 11 -4 20 -10 20 -5 0 -10 -22 -10 -50z"/>
<path d="M890 176 c0 -8 -6 -17 -12 -20 -10 -5 -10 -7 0 -12 6 -3 12 -12 12
-20 0 -8 5 -14 10 -14 6 0 10 18 10 40 0 22 -4 40 -10 40 -5 0 -10 -6 -10 -14z"/>
<path d="M945 176 c-9 -7 -15 -21 -13 -32 3 -15 11 -19 46 -17 23 1 42 -2 42
-8 0 -5 5 -9 10 -9 6 0 10 18 10 40 0 38 -14 54 -22 28 -4 -10 -10 -10 -30 -1
-20 9 -30 9 -43 -1z m33 -23 c-4 -22 -22 -20 -26 1 -2 10 3 16 13 16 10 0 15
-7 13 -17z m42 -3 c0 -5 -4 -10 -10 -10 -5 0 -10 5 -10 10 0 6 5 10 10 10 6 0
10 -4 10 -10z"/>
<path d="M505 159 c-9 -29 15 -53 44 -44 34 10 25 59 -11 63 -20 2 -28 -2 -33
-19z m49 -20 c-8 -14 -34 -11 -34 4 0 8 3 17 7 20 9 9 34 -13 27 -24z"/>
<path d="M680 155 c0 -24 3 -25 53 -23 50 1 50 2 10 5 -55 5 -59 30 -5 36 34
3 33 4 -10 5 -45 2 -48 0 -48 -23z"/>
<path d="M813 173 c21 -6 21 -12 0 -35 -19 -22 -10 -36 12 -18 11 9 18 10 28
1 21 -17 29 0 10 21 -15 17 -15 20 -3 28 11 7 3 9 -25 9 -22 -1 -32 -3 -22 -6z"/>
<path d="M690 101 c15 -4 26 -15 28 -29 5 -30 22 -28 22 2 0 19 6 26 28 29 15
2 -2 4 -38 5 -41 0 -56 -3 -40 -7z"/>
<path d="M396 88 c-4 -9 -5 -22 -1 -28 8 -13 82 -13 90 0 4 6 -10 10 -34 10
-29 0 -41 4 -44 18 -4 16 -4 16 -11 0z"/>
<path d="M520 75 c0 -23 4 -25 45 -25 25 0 45 5 45 10 0 6 -16 10 -35 10 -24
0 -35 5 -35 15 0 8 -4 15 -10 15 -5 0 -10 -11 -10 -25z"/>
<path d="M823 84 c-10 -28 43 -46 76 -25 25 16 4 41 -34 41 -23 0 -38 -5 -42
-16z m67 -4 c0 -5 -11 -10 -25 -10 -14 0 -25 5 -25 10 0 6 11 10 25 10 14 0
25 -4 25 -10z"/>
<path d="M983 93 c29 -3 37 -9 37 -24 0 -10 5 -19 10 -19 6 0 10 11 10 25 0
23 -3 25 -47 23 -44 -1 -45 -2 -10 -5z"/>
</g>
</svg>
